<?xml version="1.0" ?>
<!-- Uploaded to: SVG Repo, www.svgrepo.com, Generator: SVG Repo Mixer Tools -->
<svg fill="#000000" width="800px" height="800px" viewBox="-5.03 0 32.406 32.406" xmlns="http://www.w3.org/2000/svg">
<g transform="translate(-549.634 -578.31)">
<path d="M569.84,610.716H551.781a2.149,2.149,0,0,1-2.147-2.147V580.478a2.152,2.152,0,0,1,2.142-2.146l11.522-.021,8.688,8.708v21.55A2.149,2.149,0,0,1,569.84,610.716Zm-7.37-30.4-10.689.019a.148.148,0,0,0-.147.146v28.091a.147.147,0,0,0,.147.147H569.84a.147.147,0,0,0,.146-.147V587.845Z"/>
<path d="M570.986,588.432h-.013l-7.176-.09a2.032,2.032,0,0,1-2-2.055l.09-6.987a.975.975,0,0,1,1.013-.988,1,1,0,0,1,.987,1.013l-.09,6.986,7.205.121a1,1,0,0,1-.013,2Z"/>
<path d="M566.89,593h-12.1a1,1,0,0,1,0-2h12.1a1,1,0,0,1,0,2Z"/>
<path d="M566.89,598.542h-12.1a1,1,0,0,1,0-2h12.1a1,1,0,0,1,0,2Z"/>
<path d="M566.89,604.084h-12.1a1,1,0,0,1,0-2h12.1a1,1,0,0,1,0,2Z"/>
</g>
</svg>