<svg xmlns="http://www.w3.org/2000/svg" width="577.582" height="381.628" viewBox="0 0 577.582 381.628">
  <g id="header" transform="translate(17.79 85.387)">
    <g id="Groupe_4" data-name="Groupe 4" transform="translate(-80 11)">
      <g id="Groupe_1" data-name="Groupe 1">
        <rect id="Rectangle_8" data-name="Rectangle 8" width="144.136" height="41" transform="translate(317.401 105.025) rotate(41)" fill="#db0000"/>
        <rect id="Rectangle_7" data-name="Rectangle 7" width="141.136" height="41" transform="translate(328.323 176.612) rotate(31)" fill="#db0000"/>
        <rect id="Rectangle_2" data-name="Rectangle 2" width="182" height="25" rx="12.5" transform="translate(290.643 62.846) rotate(41)" fill="#db0000"/>
        <rect id="Rectangle_3" data-name="Rectangle 3" width="182" height="22" rx="11" transform="translate(190.643 8) rotate(41)" fill="red"/>
        <rect id="Rectangle_4" data-name="Rectangle 4" width="182" height="25" rx="12.5" transform="translate(282.643 116.846) rotate(41)" fill="#db0000"/>
        <rect id="Rectangle_5" data-name="Rectangle 5" width="182" height="18" rx="9" transform="translate(191.643 70.846) rotate(41)" fill="red"/>
        <rect id="Rectangle_6" data-name="Rectangle 6" width="182" height="25" rx="12.5" transform="translate(305.437 196.762) rotate(18)" fill="#db0000"/>
        <rect id="Rectangle_9" data-name="Rectangle 9" width="144.136" height="28" transform="translate(397.079 94.306) rotate(41)" fill="#db0000"/>
        <rect id="Rectangle_10" data-name="Rectangle 10" width="182" height="10.19" rx="5.095" transform="translate(260.032 -20.387) rotate(41)" fill="red"/>
        <rect id="Rectangle_12" data-name="Rectangle 12" width="142.136" height="30.914" transform="translate(369.641 113.949) rotate(41)" fill="#db0000"/>
        <rect id="Rectangle_13" data-name="Rectangle 13" width="182" height="14.815" rx="7.408" transform="translate(238.278 -2.107) rotate(41)" fill="red"/>
        <rect id="Rectangle_11" data-name="Rectangle 11" width="182" height="25" rx="12.5" transform="translate(383.85 98.642) rotate(41)" fill="#db0000"/>
        <rect id="Rectangle_14" data-name="Rectangle 14" width="182" height="25" rx="12.5" transform="translate(403.435 71.642) rotate(41)" fill="#db0000"/>
      </g>
      <rect id="Rectangle_15" data-name="Rectangle 15" width="4" height="4" transform="translate(368.55 115)" fill="red"/>
      <g id="Groupe_2" data-name="Groupe 2" transform="translate(99 -76)">
        <rect id="Rectangle_8-2" data-name="Rectangle 8" width="144.136" height="41" transform="translate(317.401 105.025) rotate(41)" fill="#db0000"/>
        <rect id="Rectangle_7-2" data-name="Rectangle 7" width="141.136" height="41" transform="translate(328.323 176.612) rotate(31)" fill="#db0000"/>
        <rect id="Rectangle_2-2" data-name="Rectangle 2" width="182" height="25" rx="12.5" transform="translate(290.643 62.846) rotate(41)" fill="#db0000"/>
        <rect id="Rectangle_3-2" data-name="Rectangle 3" width="182" height="22" rx="11" transform="translate(190.643 8) rotate(41)" fill="red"/>
        <rect id="Rectangle_4-2" data-name="Rectangle 4" width="182" height="25" rx="12.5" transform="translate(282.643 116.846) rotate(41)" fill="#db0000"/>
        <rect id="Rectangle_5-2" data-name="Rectangle 5" width="182" height="18" rx="9" transform="translate(191.643 70.846) rotate(41)" fill="red"/>
        <rect id="Rectangle_6-2" data-name="Rectangle 6" width="182" height="25" rx="12.5" transform="translate(305.437 196.762) rotate(18)" fill="#db0000"/>
        <rect id="Rectangle_9-2" data-name="Rectangle 9" width="144.136" height="28" transform="translate(397.079 94.306) rotate(41)" fill="#db0000"/>
        <rect id="Rectangle_10-2" data-name="Rectangle 10" width="182" height="10.19" rx="5.095" transform="translate(260.032 -20.387) rotate(41)" fill="red"/>
        <rect id="Rectangle_12-2" data-name="Rectangle 12" width="142.136" height="30.914" transform="translate(369.641 113.949) rotate(41)" fill="#db0000"/>
        <rect id="Rectangle_13-2" data-name="Rectangle 13" width="182" height="14.815" rx="7.408" transform="translate(238.278 -2.107) rotate(41)" fill="red"/>
        <rect id="Rectangle_11-2" data-name="Rectangle 11" width="182" height="25" rx="12.5" transform="translate(383.85 98.642) rotate(41)" fill="#db0000"/>
        <rect id="Rectangle_14-2" data-name="Rectangle 14" width="182" height="25" rx="12.5" transform="translate(403.435 71.642) rotate(41)" fill="#db0000"/>
        <rect id="Rectangle_20" data-name="Rectangle 20" width="130.751" height="240.758" transform="translate(424.441 93.758) rotate(41)" fill="#db0000"/>
      </g>
      <g id="Groupe_3" data-name="Groupe 3" transform="translate(-114 76.417)">
        <rect id="Rectangle_2-3" data-name="Rectangle 2" width="130.546" height="17.932" rx="8.966" transform="translate(258.291 39.315) rotate(41)" fill="#db0000"/>
        <rect id="Rectangle_17" data-name="Rectangle 17" width="53.387" height="28.76" transform="translate(348.571 111.216) rotate(41)" fill="#db0000"/>
        <g id="Groupe_6" data-name="Groupe 6">
          <path id="Ligne_23" data-name="Ligne 23" d="M154.872,41.483l-155-41L.128-.483l155,41Z" transform="translate(229.5 33.083)" fill="red"/>
          <path id="Ligne_23-2" data-name="Ligne 23" d="M154.872,41.483l-155-41L.128-.483l155,41Z" transform="translate(229.5 36.083)" fill="red"/>
          <path id="Ligne_23-3" data-name="Ligne 23" d="M154.872,41.483l-155-41L.128-.483l155,41Z" transform="translate(229.5 39.083)" fill="red"/>
          <path id="Ligne_23-4" data-name="Ligne 23" d="M154.872,41.483l-155-41L.128-.483l155,41Z" transform="translate(229.5 42.083)" fill="red"/>
          <path id="Ligne_23-5" data-name="Ligne 23" d="M154.872,41.483l-155-41L.128-.483l155,41Z" transform="translate(229.5 45.083)" fill="red"/>
          <path id="Ligne_23-6" data-name="Ligne 23" d="M154.872,41.483l-155-41L.128-.483l155,41Z" transform="translate(229.5 48.083)" fill="red"/>
          <path id="Ligne_23-7" data-name="Ligne 23" d="M154.872,41.483l-155-41L.128-.483l155,41Z" transform="translate(229.5 51.083)" fill="red"/>
          <path id="Ligne_23-8" data-name="Ligne 23" d="M154.872,41.483l-155-41L.128-.483l155,41Z" transform="translate(229.5 54.083)" fill="red"/>
          <path id="Ligne_23-9" data-name="Ligne 23" d="M154.872,41.483l-155-41L.128-.483l155,41Z" transform="translate(229.5 57.083)" fill="red"/>
          <path id="Ligne_23-10" data-name="Ligne 23" d="M154.872,41.483l-155-41L.128-.483l155,41Z" transform="translate(229.5 60.083)" fill="red"/>
          <path id="Ligne_23-11" data-name="Ligne 23" d="M154.872,41.483l-155-41L.128-.483l155,41Z" transform="translate(229.5 63.083)" fill="red"/>
          <path id="Ligne_23-12" data-name="Ligne 23" d="M154.872,41.483l-155-41L.128-.483l155,41Z" transform="translate(229.5 66.083)" fill="red"/>
          <path id="Ligne_23-13" data-name="Ligne 23" d="M154.872,41.483l-155-41L.128-.483l155,41Z" transform="translate(229.5 69.083)" fill="red"/>
          <path id="Ligne_23-14" data-name="Ligne 23" d="M154.872,41.483l-155-41L.128-.483l155,41Z" transform="translate(229.5 72.083)" fill="red"/>
          <path id="Ligne_23-15" data-name="Ligne 23" d="M154.872,41.483l-155-41L.128-.483l155,41Z" transform="translate(229.5 75.083)" fill="red"/>
          <path id="Ligne_23-16" data-name="Ligne 23" d="M154.872,41.483l-155-41L.128-.483l155,41Z" transform="translate(229.5 78.083)" fill="red"/>
          <path id="Ligne_23-17" data-name="Ligne 23" d="M154.872,41.483l-155-41L.128-.483l155,41Z" transform="translate(229.5 81.083)" fill="red"/>
          <path id="Ligne_23-18" data-name="Ligne 23" d="M154.872,41.483l-155-41L.128-.483l155,41Z" transform="translate(229.5 84.083)" fill="red"/>
          <path id="Ligne_23-19" data-name="Ligne 23" d="M154.872,41.483l-155-41L.128-.483l155,41Z" transform="translate(229.5 87.083)" fill="red"/>
          <path id="Ligne_23-20" data-name="Ligne 23" d="M154.872,41.483l-155-41L.128-.483l155,41Z" transform="translate(229.5 90.083)" fill="red"/>
          <path id="Ligne_23-21" data-name="Ligne 23" d="M154.872,41.483l-155-41L.128-.483l155,41Z" transform="translate(229.5 93.083)" fill="red"/>
          <path id="Ligne_23-22" data-name="Ligne 23" d="M154.872,41.483l-155-41L.128-.483l155,41Z" transform="translate(229.5 96.083)" fill="red"/>
          <path id="Ligne_23-23" data-name="Ligne 23" d="M154.872,41.483l-155-41L.128-.483l155,41Z" transform="translate(229.5 99.083)" fill="red"/>
          <path id="Ligne_23-24" data-name="Ligne 23" d="M154.872,41.483l-155-41L.128-.483l155,41Z" transform="translate(229.5 102.083)" fill="red"/>
          <path id="Ligne_23-25" data-name="Ligne 23" d="M154.872,41.483l-155-41L.128-.483l155,41Z" transform="translate(229.5 105.083)" fill="red"/>
          <path id="Ligne_23-26" data-name="Ligne 23" d="M154.872,41.483l-155-41L.128-.483l155,41Z" transform="translate(229.5 108.083)" fill="red"/>
          <path id="Ligne_23-27" data-name="Ligne 23" d="M154.872,41.483l-155-41L.128-.483l155,41Z" transform="translate(229.5 111.083)" fill="red"/>
          <path id="Ligne_23-28" data-name="Ligne 23" d="M154.872,41.483l-155-41L.128-.483l155,41Z" transform="translate(229.5 114.083)" fill="red"/>
          <path id="Ligne_23-29" data-name="Ligne 23" d="M154.872,41.483l-155-41L.128-.483l155,41Z" transform="translate(229.5 117.083)" fill="red"/>
          <path id="Ligne_23-30" data-name="Ligne 23" d="M154.872,41.483l-155-41L.128-.483l155,41Z" transform="translate(229.5 120.083)" fill="red"/>
          <path id="Ligne_23-31" data-name="Ligne 23" d="M154.872,41.483l-155-41L.128-.483l155,41Z" transform="translate(229.5 123.083)" fill="red"/>
          <path id="Ligne_23-32" data-name="Ligne 23" d="M154.872,41.483l-155-41L.128-.483l155,41Z" transform="translate(229.5 126.083)" fill="red"/>
        </g>
        <rect id="Rectangle_7-3" data-name="Rectangle 7" width="101.235" height="29.409" transform="translate(285.318 120.918) rotate(31)" fill="#db0000"/>
        <rect id="Rectangle_12-3" data-name="Rectangle 12" width="101.952" height="9.637" transform="translate(314.956 75.971) rotate(41)" fill="#db0000"/>
        <rect id="Rectangle_8-3" data-name="Rectangle 8" width="103.387" height="21.409" transform="translate(272.236 74.607) rotate(41)" fill="#db0000"/>
        <rect id="Rectangle_3-3" data-name="Rectangle 3" width="130.546" height="15.78" rx="7.89" transform="translate(186.562 -0.025) rotate(41)" fill="red"/>
        <rect id="Rectangle_4-3" data-name="Rectangle 4" width="130.546" height="17.932" rx="8.966" transform="translate(252.553 78.048) rotate(41)" fill="#db0000"/>
        <rect id="Rectangle_5-3" data-name="Rectangle 5" width="130.546" height="12.911" rx="6.456" transform="translate(187.28 45.053) rotate(41)" fill="red"/>
        <rect id="Rectangle_6-3" data-name="Rectangle 6" width="130.546" height="17.932" rx="8.966" transform="translate(268.903 135.371) rotate(18)" fill="#db0000"/>
        <rect id="Rectangle_9-3" data-name="Rectangle 9" width="103.387" height="20.084" transform="translate(334.637 61.881) rotate(41)" fill="#db0000"/>
        <rect id="Rectangle_10-3" data-name="Rectangle 10" width="130.546" height="7.309" rx="3.655" transform="translate(236.334 -20.387) rotate(41)" fill="red"/>
        <rect id="Rectangle_13-3" data-name="Rectangle 13" width="130.546" height="10.627" rx="5.313" transform="translate(220.73 -7.275) rotate(41)" fill="red"/>
        <rect id="Rectangle_11-3" data-name="Rectangle 11" width="130.546" height="17.932" rx="8.966" transform="translate(325.148 64.991) rotate(41)" fill="#db0000"/>
        <rect id="Rectangle_14-3" data-name="Rectangle 14" width="130.546" height="17.932" rx="8.966" transform="translate(339.195 45.624) rotate(41)" fill="#db0000"/>
        <rect id="Rectangle_18" data-name="Rectangle 18" width="53.387" height="28.76" transform="translate(339.551 133.216) rotate(41)" fill="#db0000"/>
      </g>
    </g>
    <circle id="Ellipse_1" data-name="Ellipse 1" cx="6.5" cy="6.5" r="6.5" transform="translate(278 121)" fill="#db0000"/>
    <circle id="Ellipse_2" data-name="Ellipse 2" cx="9.5" cy="9.5" r="9.5" transform="translate(178 62)" fill="#db0000"/>
    <circle id="Ellipse_3" data-name="Ellipse 3" cx="9.5" cy="9.5" r="9.5" transform="translate(105 134)" fill="#db0000"/>
    <circle id="Ellipse_4" data-name="Ellipse 4" cx="5" cy="5" r="5" transform="translate(383 19)" fill="#db0000"/>
    <circle id="Ellipse_5" data-name="Ellipse 5" cx="8" cy="8" r="8" transform="translate(31 190)" fill="#db0000"/>
    <circle id="Ellipse_6" data-name="Ellipse 6" cx="73.5" cy="73.5" r="73.5" transform="translate(-16 -54)" fill="rgba(219,0,0,0.27)"/>
    <circle id="Ellipse_7" data-name="Ellipse 7" cx="50.5" cy="50.5" r="50.5" transform="translate(7 -31)" fill="red"/>
    <g id="Groupe_5" data-name="Groupe 5">
      <path id="Ligne_1" data-name="Ligne 1" d="M66.5,41a1,1,0,0,1-.514-.143l-66.5-40A1,1,0,0,1-.857-.515,1,1,0,0,1,.515-.857l66.5,40A1,1,0,0,1,66.5,41Z" transform="translate(212.75 13)" fill="#db0000"/>
      <path id="Ligne_2" data-name="Ligne 2" d="M65,40a1,1,0,0,1-.514-.143l-65-39A1,1,0,0,1-.857-.515,1,1,0,0,1,.515-.857l65,39A1,1,0,0,1,65,40Z" transform="translate(211.5 16.5)" fill="#db0000"/>
      <path id="Ligne_3" data-name="Ligne 3" d="M63.749,39a1,1,0,0,1-.511-.141L-.512.859A1,1,0,0,1-.859-.512,1,1,0,0,1,.512-.859l63.75,38A1,1,0,0,1,63.749,39Z" transform="translate(210.5 20.5)" fill="#db0000"/>
      <path id="Ligne_4" data-name="Ligne 4" d="M62,38a1,1,0,0,1-.512-.141l-62-37A1,1,0,0,1-.859-.512,1,1,0,0,1,.512-.859l62,37A1,1,0,0,1,62,38Z" transform="translate(209.5 24.5)" fill="#db0000"/>
      <path id="Ligne_5" data-name="Ligne 5" d="M59,36a1,1,0,0,1-.509-.14l-59-35A1,1,0,0,1-.86-.51,1,1,0,0,1,.51-.86l59,35A1,1,0,0,1,59,36Z" transform="translate(208.5 28.5)" fill="#db0000"/>
      <path id="Ligne_6" data-name="Ligne 6" d="M56,34.5a1,1,0,0,1-.512-.142l-56-33.5A1,1,0,0,1-.858-.513,1,1,0,0,1,.513-.858l56,33.5A1,1,0,0,1,56,34.5Z" transform="translate(208.5 33)" fill="#db0000"/>
      <path id="Ligne_7" data-name="Ligne 7" d="M65,40a1,1,0,0,1-.514-.143l-65-39A1,1,0,0,1-.857-.515,1,1,0,0,1,.515-.857l65,39A1,1,0,0,1,65,40Z" transform="translate(280.5 49.5) rotate(180)" fill="#db0000"/>
      <path id="Ligne_8" data-name="Ligne 8" d="M63.749,39a1,1,0,0,1-.511-.141L-.512.859A1,1,0,0,1-.859-.512,1,1,0,0,1,.512-.859l63.75,38A1,1,0,0,1,63.749,39Z" transform="translate(281.5 45.5) rotate(180)" fill="#db0000"/>
      <path id="Ligne_9" data-name="Ligne 9" d="M62,38a1,1,0,0,1-.512-.141l-62-37A1,1,0,0,1-.859-.512,1,1,0,0,1,.512-.859l62,37A1,1,0,0,1,62,38Z" transform="translate(282.5 41.5) rotate(180)" fill="#db0000"/>
      <path id="Ligne_10" data-name="Ligne 10" d="M59,36a1,1,0,0,1-.509-.14l-59-35A1,1,0,0,1-.86-.51,1,1,0,0,1,.51-.86l59,35A1,1,0,0,1,59,36Z" transform="translate(283.5 37.5) rotate(180)" fill="#db0000"/>
      <path id="Ligne_11" data-name="Ligne 11" d="M56,34.5a1,1,0,0,1-.512-.142l-56-33.5A1,1,0,0,1-.858-.513,1,1,0,0,1,.513-.858l56,33.5A1,1,0,0,1,56,34.5Z" transform="translate(283.5 33) rotate(180)" fill="#db0000"/>
      <path id="Ligne_12" data-name="Ligne 12" d="M52,32a1,1,0,0,1-.511-.141l-52-31A1,1,0,0,1-.859-.512,1,1,0,0,1,.512-.859l52,31A1,1,0,0,1,52,32Z" transform="translate(208.5 37.5)" fill="#db0000"/>
      <path id="Ligne_13" data-name="Ligne 13" d="M47,28.5a1,1,0,0,1-.5-.137l-47-27.5A1,1,0,0,1-.863-.505,1,1,0,0,1,.505-.863l47,27.5A1,1,0,0,1,47,28.5Z" transform="translate(209.5 43)" fill="#db0000"/>
      <path id="Ligne_14" data-name="Ligne 14" d="M39,24a1,1,0,0,1-.507-.139l-39-23A1,1,0,0,1-.861-.508,1,1,0,0,1,.508-.861l39,23A1,1,0,0,1,39,24Z" transform="translate(211.5 48.5)" fill="#db0000"/>
      <path id="Ligne_15" data-name="Ligne 15" d="M31,19.25a1,1,0,0,1-.506-.138L-.507.862A1,1,0,0,1-.862-.507,1,1,0,0,1,.507-.862l31,18.25A1,1,0,0,1,31,19.25Z" transform="translate(213.5 54.25)" fill="#db0000"/>
      <path id="Ligne_16" data-name="Ligne 16" d="M20,13.25a1,1,0,0,1-.521-.147L-.522.853A1,1,0,0,1-.853-.522,1,1,0,0,1,.522-.853l20,12.25A1,1,0,0,1,20,13.25Z" transform="translate(216.5 60.25)" fill="#db0000"/>
      <path id="Ligne_18" data-name="Ligne 18" d="M52,32a1,1,0,0,1-.511-.141l-52-31A1,1,0,0,1-.859-.512,1,1,0,0,1,.512-.859l52,31A1,1,0,0,1,52,32Z" transform="translate(284.251 29) rotate(180)" fill="#db0000"/>
      <path id="Ligne_19" data-name="Ligne 19" d="M47,28.5a1,1,0,0,1-.5-.137l-47-27.5A1,1,0,0,1-.863-.505,1,1,0,0,1,.505-.863l47,27.5A1,1,0,0,1,47,28.5Z" transform="translate(283.251 23.5) rotate(180)" fill="#db0000"/>
      <path id="Ligne_20" data-name="Ligne 20" d="M39,24a1,1,0,0,1-.507-.139l-39-23A1,1,0,0,1-.861-.508,1,1,0,0,1,.508-.861l39,23A1,1,0,0,1,39,24Z" transform="translate(281.251 18) rotate(180)" fill="#db0000"/>
      <path id="Ligne_21" data-name="Ligne 21" d="M31,19.25a1,1,0,0,1-.506-.138L-.507.862A1,1,0,0,1-.862-.507,1,1,0,0,1,.507-.862l31,18.25A1,1,0,0,1,31,19.25Z" transform="translate(279.251 12.25) rotate(180)" fill="#db0000"/>
      <path id="Ligne_22" data-name="Ligne 22" d="M20,13.25a1,1,0,0,1-.521-.147L-.522.853A1,1,0,0,1-.853-.522,1,1,0,0,1,.522-.853l20,12.25A1,1,0,0,1,20,13.25Z" transform="translate(276.251 6.25) rotate(180)" fill="#db0000"/>
    </g>
  </g>
</svg>
